<svg xmlns="http://www.w3.org/2000/svg" viewBox="0 0 15 15" width="15" height="15">
	<defs>
		<clipPath clipPathUnits="userSpaceOnUse" id="cp1">
			<path d="M-520 -3738L1400 -3738L1400 190L-520 190Z" />
		</clipPath>
	</defs>
	<style>
		tspan { white-space:pre }
		.shp0 { fill: #ffffff } 
	</style>
	<g id="HOME" clip-path="url(#cp1)">
		<g id="Group 625">
			<g id="Group 290">
				<path id="Path 24" fill-rule="evenodd" class="shp0" d="M0.94 14.16C1.04 13.85 1.04 13.65 1.14 13.34C1.35 12.52 1.55 11.71 1.86 10.89C1.86 10.78 1.86 10.58 1.86 10.48C-0.19 6.49 1.96 1.68 6.36 0.66C10.35 -0.26 13.93 2.4 14.54 5.98C15.26 9.76 12.8 13.34 9.02 13.96C7.59 14.26 6.15 13.96 4.72 13.34C4.62 13.24 4.42 13.24 4.31 13.34C2.47 13.75 1.24 14.06 0.94 14.16ZM2.47 12.63C3.19 12.42 3.8 12.32 4.42 12.11C4.62 12.11 4.72 12.11 4.93 12.22C6.05 12.93 7.38 13.14 8.71 12.93C11.78 12.42 13.93 9.56 13.42 6.49C12.91 3.32 9.94 1.17 6.77 1.78C2.98 2.5 0.94 6.8 2.78 10.07C2.98 10.48 3.09 10.78 2.88 11.19C2.78 11.6 2.68 12.01 2.47 12.63Z" />
			</g>
		</g>
	</g>
</svg>