<svg xmlns="http://www.w3.org/2000/svg" viewBox="0 0 14 12" width="14" height="12">
	<defs>
		<clipPath clipPathUnits="userSpaceOnUse" id="cp1">
			<path d="M-437 -3740L1483 -3740L1483 188L-437 188Z" />
		</clipPath>
	</defs>
	<style>
		tspan { white-space:pre }
		.shp0 { fill: #ffffff } 
	</style>
	<g id="HOME" clip-path="url(#cp1)">
		<g id="Group 625">
			<path id="Path 22" class="shp0" d="M4.56 9.03C3.13 9.03 2.21 7.91 2 7.09C2.41 7.19 2.82 7.19 3.23 7.09L3.23 7.09C2.41 6.89 1.9 6.48 1.39 5.86C1.08 5.45 0.98 4.94 0.98 4.43C1.39 4.64 1.8 4.74 2.21 4.74C1.59 4.33 1.18 3.72 1.08 3.1C0.88 2.39 0.98 1.77 1.39 1.06C2.92 2.79 4.76 3.72 7.12 3.92C7.12 3.82 7.12 3.72 7.12 3.61C7.01 3 7.22 2.39 7.53 1.77C7.94 1.06 8.55 0.65 9.37 0.54C10.29 0.44 11.11 0.65 11.82 1.36C11.82 1.36 11.92 1.47 11.92 1.36C12.54 1.26 13.05 1.06 13.56 0.75L13.56 0.75L13.56 0.75C13.36 1.36 12.95 1.87 12.33 2.18C12.85 2.08 13.36 1.98 13.87 1.77L13.87 1.77C13.77 1.87 13.66 2.08 13.56 2.18C13.25 2.59 12.95 2.9 12.54 3.1C12.54 3.1 12.54 3.1 12.54 3.2C12.54 3.61 12.54 4.02 12.44 4.43C12.33 5.25 12.13 6.07 11.72 6.89C11.31 7.71 10.8 8.42 10.19 9.03C9.16 10.16 7.83 10.88 6.4 11.18C5.89 11.29 5.38 11.39 4.87 11.39C3.23 11.39 1.8 11.08 0.47 10.16C0.47 10.16 0.47 10.16 0.37 10.16C1.29 10.26 2.21 10.16 3.13 9.75C3.74 9.65 4.15 9.44 4.56 9.03Z" />
		</g>
	</g>
</svg>