<svg xmlns="http://www.w3.org/2000/svg" viewBox="0 0 9 15" width="9" height="15">
	<defs>
		<clipPath clipPathUnits="userSpaceOnUse" id="cp1">
			<path d="M-397 -3738L1523 -3738L1523 190L-397 190Z" />
		</clipPath>
	</defs>
	<style>
		tspan { white-space:pre }
		.shp0 { fill: #ffffff } 
	</style>
	<g id="HOME" clip-path="url(#cp1)">
		<g id="Group 625">
			<path id="Path 21" class="shp0" d="M6.81 2.93C7.22 2.93 7.73 2.93 8.14 2.93C8.25 2.93 8.25 2.93 8.35 2.93L8.35 0.58C8.14 0.58 7.84 0.47 7.63 0.47C7.12 0.47 6.71 0.47 6.2 0.47C5.48 0.47 4.87 0.68 4.26 1.09C3.64 1.6 3.23 2.21 3.13 3.03C3.03 3.34 3.03 3.75 3.03 4.05C3.03 4.57 3.03 5.08 3.03 5.59L3.03 5.79L0.78 5.79L0.78 8.45L3.03 8.45L3.03 15L5.79 15L5.79 8.45L7.94 8.45C8.04 7.53 8.14 6.71 8.25 5.79C8.04 5.79 7.94 5.79 7.73 5.79C7.12 5.79 5.69 5.79 5.69 5.79C5.69 5.79 5.69 4.46 5.69 3.95C5.79 3.24 6.2 2.93 6.81 2.93Z" />
		</g>
	</g>
</svg>