<svg xmlns="http://www.w3.org/2000/svg" viewBox="0 0 14 14" width="14" height="14">
	<defs>
		<clipPath clipPathUnits="userSpaceOnUse" id="cp1">
			<path d="M-479 -3739L1441 -3739L1441 189L-479 189Z" />
		</clipPath>
	</defs>
	<style>
		tspan { white-space:pre }
		.shp0 { fill: #ffffff } 
	</style>
	<g id="HOME" clip-path="url(#cp1)">
		<g id="Group 625">
			<g id="Group 289">
				<path id="Path 23" fill-rule="evenodd" class="shp0" d="M12.89 10.38C12.48 11.82 11.56 12.74 10.13 12.94C9.1 13.15 4.19 13.25 3.17 12.94C1.74 12.53 0.82 11.61 0.61 10.18C0.51 9.16 0.41 4.14 0.71 3.12C1.12 1.69 2.04 0.87 3.48 0.67C4.7 0.46 8.28 0.46 9.72 0.56C10.64 0.56 11.45 0.87 12.07 1.49C12.68 2.1 12.99 2.82 13.09 3.63C13.19 4.66 13.3 9.26 12.89 10.38ZM11.97 3.84C11.76 2.71 11.15 2 10.02 1.79C8.9 1.69 4.91 1.69 3.78 1.79C2.66 2 1.94 2.61 1.74 3.74C1.53 4.86 1.63 9.26 1.74 10.08C1.84 10.9 2.35 11.61 3.27 11.82C4.29 12.12 8.8 12.02 9.82 11.92C10.94 11.71 11.66 11.1 11.86 9.98C12.07 8.85 12.07 4.76 11.97 3.84ZM10.12 6.8C10.12 8.65 8.69 10.08 6.85 10.08C5.01 10.08 3.58 8.54 3.58 6.8C3.58 4.96 5.11 3.53 6.85 3.53C8.69 3.53 10.13 4.96 10.12 6.8ZM9 6.8C9 5.58 8.08 4.66 6.95 4.66C5.73 4.66 4.81 5.58 4.81 6.7C4.81 7.93 5.73 8.85 6.85 8.85C7.98 8.85 9 7.93 9 6.8ZM10.94 3.43C10.94 3.84 10.64 4.14 10.23 4.14C9.82 4.14 9.51 3.84 9.51 3.43C9.51 3.02 9.82 2.71 10.23 2.71C10.64 2.61 10.94 3.02 10.94 3.43Z" />
			</g>
		</g>
	</g>
</svg>